<?xml version="1.0" encoding="UTF-8" standalone="no"?>
<svg
   xmlns:dc="http://purl.org/dc/elements/1.1/"
   xmlns:cc="http://creativecommons.org/ns#"
   xmlns:rdf="http://www.w3.org/1999/02/22-rdf-syntax-ns#"
   xmlns:svg="http://www.w3.org/2000/svg"
   xmlns="http://www.w3.org/2000/svg"
   viewBox="0 0 523.23999 107.70667"
   height="107.70667"
   width="523.23999"
   xml:space="preserve"
   id="svg2"
   version="1.1"><metadata
     id="metadata8"><rdf:RDF><cc:Work
         rdf:about=""><dc:format>image/svg+xml</dc:format><dc:type
           rdf:resource="http://purl.org/dc/dcmitype/StillImage" /></cc:Work></rdf:RDF></metadata><defs
     id="defs6" /><g
     transform="matrix(1.3333333,0,0,-1.3333333,0,107.70667)"
     id="g10"><g
       transform="scale(0.1)"
       id="g12"><path
         id="path14"
         style="fill:#10427a;fill-opacity:1;fill-rule:nonzero;stroke:none"
         d="m 1031.65,704.965 c -1.7,-0.84 -4.26,-0.84 -5.12,-14.356 -0.86,-16.894 -0.86,-195.957 -0.86,-209.472 0,-12.676 3.42,-15.215 5.98,-15.215 5.13,-0.84 16.23,-0.84 23.07,-0.84 24.76,0 77.73,6.758 94.81,17.734 23.91,16.895 51.24,51.524 51.24,97.129 0,44.785 -13.67,76.875 -35.88,97.149 -23.06,21.113 -53.81,33.789 -105.06,33.789 -11.1,0 -23.9,-3.379 -28.18,-5.918 z m 169.96,-10.977 c 36.74,-26.191 52.97,-64.199 52.97,-101.367 0,-56.582 -29.04,-81.074 -48.67,-96.289 -14.52,-12.676 -38.45,-22.812 -52.11,-27.871 -3.42,-1.68 -1.72,-7.598 1.71,-16.055 17.07,-32.929 72.61,-119.101 96.51,-151.191 26.47,-35.469 44.42,-56.602 62.35,-74.336 27.34,-27.031 52.1,-34.629 67.48,-34.629 6.83,0 11.1,-2.52 11.1,-5.059 0,-1.699 -3.41,-4.238 -10.25,-6.757 -6.83,-2.539 -20.5,-3.379 -32.46,-3.379 -52.1,0 -86.28,27.871 -117.87,66.718 -43.55,54.903 -115.29,171.465 -127.26,185.84 -8.54,9.278 -16.22,16.895 -26.48,19.414 -8.52,2.539 -20.5,4.219 -42.7,3.379 -4.28,0 -7.7,-3.379 -8.54,-6.758 -1.72,-8.437 -2.56,-116.562 -1.72,-150.351 0.86,-38.848 4.28,-69.258 6.84,-76.856 3.42,-10.136 9.39,-18.593 40.16,-23.652 9.39,-1.68 12.79,-3.379 12.79,-6.758 0,-3.379 -6.83,-5.918 -17.08,-5.918 -17.93,0 -34.17,4.239 -63.19,4.239 -31.604,0 -56.389,-4.239 -72.624,-4.239 -8.535,0 -14.507,1.7 -14.507,5.918 0,3.379 5.972,5.078 17.086,7.598 26.476,5.078 35.878,12.676 38.441,48.144 2.559,48.145 4.258,111.504 4.258,233.985 0,118.242 -3.418,163.008 -5.117,190.039 -1.704,24.492 -3.43,36.328 -39.297,42.226 -7.676,1.7 -14.512,3.399 -14.512,7.618 0,2.539 4.273,5.058 15.367,5.058 11.965,0 32.461,-3.379 63.203,-3.379 31.602,0 63.202,4.239 91.402,4.239 51.24,0 84.55,-9.297 112.72,-29.571" /><path
         id="path16"
         style="fill:#10427a;fill-opacity:1;fill-rule:nonzero;stroke:none"
         d="m 1556.1,248.949 c 27.41,21.25 60,69.59 60,142.129 0,52.735 -15.54,100.371 -49.63,134.063 -20.73,21.25 -53.34,41.757 -100.01,41.757 -31.12,0 -65.93,-18.3 -87.41,-41.015 -31.13,-32.246 -40.76,-79.141 -40.76,-126.758 0,-40.293 17.05,-87.91 42.24,-116.484 35.55,-41.758 71.86,-54.219 109.64,-54.219 24.45,0 46.66,6.601 65.93,20.527 z m -265.96,152.383 c 0,50.547 20.75,100.371 76.32,140.664 31.85,24.18 69.62,35.899 110.39,35.899 105.91,0 185.93,-82.051 185.93,-183.165 0,-86.445 -61.5,-143.593 -106.68,-161.894 -24.45,-10.273 -49.64,-16.856 -77.05,-16.856 -106.69,0 -188.91,86.446 -188.91,185.352" /><path
         id="path18"
         style="fill:#10427a;fill-opacity:1;fill-rule:nonzero;stroke:none"
         d="m 2001.3,557.387 c 2.95,-0.742 7.4,-5.86 7.4,-9.532 -1.48,-13.183 0.72,-41.035 0.72,-46.152 0.76,-8.789 -2.2,-14.648 -4.43,-14.648 -2.95,0 -3.69,3.652 -5.2,8.789 -5.17,19.785 -12.58,34.433 -31.11,47.617 -18.51,13.184 -42.22,24.18 -86.68,24.18 -42.21,0 -80.74,-18.321 -104.44,-42.5 -24.44,-24.903 -43.7,-71.797 -43.7,-125.274 0,-51.289 24.43,-99.629 49.62,-125.293 29.64,-30.019 72.6,-44.687 107.43,-44.687 34.08,0 51.85,5.136 68.14,15.39 21.49,13.926 37.8,32.969 46.68,54.961 2.97,7.325 4.45,10.254 7.4,10.254 2.23,0 2.97,-5.859 2.97,-10.996 0,-10.996 -7.4,-31.504 -8.88,-36.641 -1.49,-5.117 -4.46,-14.648 -8.91,-17.578 -35.55,-19.043 -62.96,-29.297 -114.81,-29.297 -72.61,0 -111.13,21.25 -148.17,54.219 -25.94,22.696 -50.38,73.262 -50.38,125.274 0,61.543 28.9,106.23 66.68,137.734 31.85,26.367 80.74,44.688 133.34,44.688 51.13,0 89.65,-11.719 116.33,-20.508" /><path
         id="path20"
         style="fill:#10427a;fill-opacity:1;fill-rule:nonzero;stroke:none"
         d="m 2074.96,518.559 c 0,23.437 -3.7,35.156 -28.15,39.55 -7.4,1.465 -13.32,3.672 -13.32,6.602 0,2.93 7.38,4.394 12.58,4.394 9.65,0 28.89,-2.207 47.42,-2.207 14.81,0 43.71,2.207 51.11,2.207 6.66,0 11.86,-0.742 11.86,-3.671 0,-3.653 -7.4,-6.582 -11.86,-7.325 -19.27,-3.652 -25.19,-10.976 -25.93,-28.574 0,-11.719 -1.47,-102.558 -0.75,-109.16 0.75,-5.117 1.49,-10.254 5.2,-10.254 14.8,0 99.26,0 154.82,0 50.39,0 55.57,0 59.28,0.742 4.44,0.723 5.18,2.93 5.92,6.582 1.48,8.067 0.74,78.399 0,97.442 -1.48,31.504 -6.66,39.57 -27.42,42.5 -6.66,1.465 -14.06,3.652 -14.06,6.582 0,3.672 5.91,5.136 14.06,5.136 25.19,0 27.42,-2.207 51.13,-2.207 18.52,0 31.11,2.207 45.2,2.207 10.35,0 14.8,-1.464 14.8,-4.394 0,-2.207 -4.45,-5.137 -11.85,-5.859 -25.92,-3.672 -29.63,-15.391 -29.63,-37.364 0,-13.925 -0.75,-96.718 0,-134.082 0.74,-36.621 1.48,-90.84 1.48,-107.695 0,-30.762 2.97,-37.363 32.6,-43.965 7.4,-1.445 11.85,-2.91 11.85,-6.582 0,-2.93 -5.17,-4.394 -12.59,-4.394 -9.63,0 -42.23,2.187 -54.09,2.187 -15.54,0 -39.25,-2.187 -46.66,-2.187 -10.39,0 -14.82,1.464 -14.82,4.394 0,3.672 5.92,5.137 11.09,6.582 22.25,3.672 26.68,6.602 28.91,29.317 0.74,9.511 0.74,54.218 0.74,113.554 0,6.602 -4.45,12.461 -5.92,12.461 -10.37,1.465 -44.45,2.188 -120.76,2.188 -38.51,0 -87.42,0 -95.56,0 -2.97,0 -5.2,-3.653 -5.2,-10.977 0,-115.039 1.48,-121.621 2.97,-127.48 2.23,-10.996 8.89,-13.926 25.94,-18.321 8.14,-2.187 12.59,-4.394 12.59,-7.324 0,-4.394 -9.62,-4.394 -13.34,-4.394 -11.11,0 -34.82,2.187 -52.59,2.187 -15.57,0 -36.29,-2.187 -45.2,-2.187 -5.94,0 -14.81,0.722 -14.81,5.117 0,2.207 7.41,5.136 13.33,5.859 25.19,5.137 25.93,11.738 27.42,27.109 1.46,15.391 2.21,51.29 2.21,136.27 v 119.434" /><path
         id="path22"
         style="fill:#10427a;fill-opacity:1;fill-rule:nonzero;stroke:none"
         d="m 2456.3,563.969 c 0,2.929 4.46,5.136 8.91,5.136 14.79,0 34.79,-2.207 48.87,-2.207 31.85,0 100.74,1.465 124.45,1.465 21.48,0 40.02,0.742 45.22,0.742 2.94,0 5.17,-5.136 5.91,-8.789 0.73,-5.859 2.97,-31.503 4.44,-41.757 0.74,-5.86 -0.75,-10.254 -3.71,-10.254 -2.21,0 -4.44,3.652 -6.64,8.789 -11.14,24.902 -20.77,33.691 -29.65,35.156 -9.61,1.465 -11.86,2.207 -109.63,2.207 -3.71,0 -5.94,-1.465 -5.94,-8.066 0,-30.039 -0.74,-113.555 0,-129.668 0,-2.93 1.48,-5.86 4.45,-5.86 h 63.69 c 29.65,0 42.25,2.93 48.17,5.86 3.69,2.187 8.14,6.582 14.08,21.25 1.49,4.394 3.69,8.769 6.66,8.769 2.21,0 2.97,-2.929 2.97,-10.254 0,-2.929 -2.97,-24.902 -3.71,-32.949 -0.72,-8.809 -0.72,-28.574 0,-32.969 0.74,-5.136 -0.72,-10.996 -2.95,-10.996 -2.97,0 -4.45,3.672 -8.16,12.461 -3.72,8.789 -7.41,20.508 -16.29,21.973 -8.91,2.187 -25.94,3.652 -105.94,3.652 -1.49,0 -4.45,-2.187 -4.45,-7.324 -0.75,-17.578 1.48,-106.953 2.22,-117.949 1.49,-20.508 2.23,-30.039 14.83,-31.504 7.4,-0.723 28.88,-2.207 60,-2.207 54.06,0 59.27,2.949 68.16,9.531 5.92,5.137 14.06,15.391 25.18,34.434 2.97,5.859 5.93,9.531 8.14,9.531 2.99,0 3.71,-5.137 0,-15.391 -2.21,-5.859 -11.11,-36.621 -12.6,-43.945 -0.72,-3.672 -5.91,-8.066 -10.35,-8.066 -62.97,0 -122.24,2.187 -175.58,2.187 -19.26,0 -44.46,-2.187 -51.1,-2.187 -6.7,0 -14.84,0 -14.84,4.394 0,2.93 5.94,5.137 11.85,5.859 20.02,3.653 28.91,9.532 30.37,31.504 2.23,35.157 2.23,99.629 2.23,154.59 0,27.832 0,58.613 0,97.442 0,29.296 -8.89,35.156 -28.89,39.55 -6.66,1.465 -9.62,3.672 -9.62,6.602 l -0.75,-0.742" /><path
         id="path24"
         style="fill:#10427a;fill-opacity:1;fill-rule:nonzero;stroke:none"
         d="m 2797.55,503.168 c 0,-28.574 18.54,-49.082 37.07,-62.266 21.47,-13.925 40.75,-26.386 62.23,-38.828 22.21,-14.668 58.52,-40.312 58.52,-85.722 0,-62.286 -57.78,-100.372 -117.05,-100.372 -26.68,0 -59.26,6.583 -78.54,16.114 -7.4,2.207 -8.89,11.719 -11.09,20.508 -0.75,9.531 -2.97,21.25 -4.46,39.57 -0.74,6.601 0,12.461 2.97,12.461 2.95,0 6.66,-5.137 9.63,-13.926 5.92,-19.785 14.81,-35.176 28.15,-45.43 17.77,-13.906 41.48,-18.32 55.56,-18.32 45.92,0 72.6,29.316 72.6,67.402 0,39.571 -22.23,59.356 -71.86,88.653 -42.22,24.902 -80.76,54.961 -80.76,103.301 0,26.386 12.62,53.476 35.57,69.609 20.74,15.391 49.65,21.973 74.82,21.973 28.89,0 53.34,-8.79 60.75,-11.719 4.45,-1.465 6.67,-4.395 7.42,-7.324 0,-15.391 2.95,-32.969 4.45,-41.036 1.47,-8.066 0.72,-13.183 -2.25,-13.183 -2.95,0 -5.17,3.672 -7.4,10.996 -5.92,16.113 -13.34,27.832 -24.43,35.898 -13.34,10.977 -31.13,16.114 -48.17,16.114 -27.4,0 -63.73,-15.391 -63.73,-64.473" /><path
         id="path26"
         style="fill:#10427a;fill-opacity:1;fill-rule:nonzero;stroke:none"
         d="m 3234.04,566.898 c 26.68,0 37.03,1.465 46.68,5.137 3.69,2.188 7.4,4.395 8.86,2.93 1.51,-1.465 1.51,-3.652 0.77,-6.602 -2.23,-4.394 -4.44,-28.574 -3.71,-53.476 0,-8.067 -1.49,-13.926 -4.44,-13.926 -2.22,0 -4.45,5.137 -5.19,8.789 -1.49,7.344 -7.43,27.852 -11.12,32.969 -4.43,5.879 -5.93,8.808 -24.43,8.808 -12.6,0 -74.84,0 -86.7,0 -2.95,0 -4.43,-6.601 -4.43,-9.531 l -1.49,-192.676 c 0,-32.246 0,-71.074 2.23,-87.929 2.23,-16.114 10.37,-21.973 29.63,-25.645 8.14,-1.445 12.6,-4.375 12.6,-7.324 0,-2.93 -8.89,-4.395 -14.09,-4.395 -17.77,0 -30.37,2.93 -52.59,2.93 -30.37,0 -43.7,-2.93 -52.6,-2.93 -10.39,0 -14.06,2.207 -14.06,4.395 0,2.949 5.17,5.137 12.57,6.601 27.41,3.653 31.12,10.254 31.86,38.106 2.25,54.941 3.71,263.008 3.71,268.867 0,2.93 -0.74,8.789 -3.71,9.531 -5.18,0 -20.74,0 -46.66,0 -24.45,0 -42.23,-0.742 -49.63,-1.464 -11.13,-1.465 -20.02,-8.79 -25.94,-38.106 -1.48,-6.582 -3.71,-10.254 -5.91,-10.254 -2.97,0 -4.46,4.395 -4.46,10.996 0,11.719 5.92,36.621 5.92,55.664 0,3.672 0.74,6.602 2.21,8.067 2.24,1.465 3.73,0 6.68,-2.93 2.24,-2.187 10.37,-3.652 18.53,-4.395 8.15,-0.742 68.15,-2.207 128.91,-2.207 h 100" /><path
         id="path28"
         style="fill:#10427a;fill-opacity:1;fill-rule:nonzero;stroke:none"
         d="m 3314.08,563.969 c 0,2.929 4.43,5.136 8.88,5.136 14.83,0 34.81,-2.207 48.89,-2.207 31.86,0 100.76,1.465 124.47,1.465 21.49,0 39.98,0.742 45.18,0.742 2.97,0 5.19,-5.136 5.94,-8.789 0.74,-5.859 2.97,-31.503 4.45,-41.757 0.72,-5.86 -0.74,-10.254 -3.71,-10.254 -2.25,0 -4.45,3.652 -6.68,8.789 -11.09,24.902 -20.74,33.691 -29.63,35.156 -9.63,1.465 -11.86,2.207 -109.65,2.207 -3.71,0 -5.9,-1.465 -5.9,-8.066 0,-30.039 -0.76,-113.555 0,-129.668 0,-2.93 1.47,-5.86 4.42,-5.86 h 63.71 c 29.65,0 42.22,2.93 48.18,5.86 3.67,2.187 8.13,6.582 14.06,21.25 1.47,4.394 3.72,8.769 6.66,8.769 2.25,0 2.95,-2.929 2.95,-10.254 0,-2.929 -2.95,-24.902 -3.69,-32.949 -0.74,-8.809 -0.74,-28.574 0,-32.969 0.74,-5.136 -0.74,-10.996 -2.95,-10.996 -2.97,0 -4.43,3.672 -8.16,12.461 -3.69,8.789 -7.4,20.508 -16.29,21.973 -8.89,2.187 -25.94,3.652 -105.94,3.652 -1.48,0 -4.43,-2.187 -4.43,-7.324 -0.76,-17.578 1.48,-106.953 2.21,-117.949 1.46,-20.508 2.22,-30.039 14.82,-31.504 7.4,-0.723 28.87,-2.207 60,-2.207 54.08,0 59.26,2.949 68.16,9.531 5.9,5.137 14.05,15.391 25.18,34.434 2.95,5.859 5.94,9.531 8.14,9.531 2.97,0 3.72,-5.137 0,-15.391 -2.2,-5.859 -11.09,-36.621 -12.59,-43.945 -0.73,-3.672 -5.92,-8.066 -10.35,-8.066 -62.97,0 -122.25,2.187 -175.61,2.187 -19.24,0 -44.43,-2.187 -51.07,-2.187 -6.68,0 -14.83,0 -14.83,4.394 0,2.93 5.9,5.137 11.84,5.859 20,3.653 28.9,9.532 30.39,31.504 2.2,35.157 2.2,99.629 2.2,154.59 0,27.832 0,58.613 0,97.442 0,29.296 -8.88,35.156 -28.88,39.55 -6.68,1.465 -9.65,3.672 -9.65,6.602 l -0.72,-0.742" /><path
         id="path30"
         style="fill:#10427a;fill-opacity:1;fill-rule:nonzero;stroke:none"
         d="m 3677.53,553.715 c -1.48,-0.723 -3.71,-4.395 -4.45,-14.649 -0.72,-8.789 -2.21,-117.226 -2.21,-126.015 0,-2.93 1.49,-10.977 5.18,-10.977 8.91,-0.742 20.76,-0.742 32.6,-0.742 22.22,0.742 40,6.582 52.61,13.926 16.31,10.254 32.58,30.039 32.58,60.058 0,21.993 -7.4,40.313 -20,54.961 -15.54,16.856 -38.51,27.832 -67.4,27.832 -5.94,0 -22.97,-1.464 -28.91,-4.394 z m -6.66,-241.758 c 0,-38.828 2.21,-51.289 2.95,-55.684 0.76,-11.718 9.65,-17.597 25.94,-20.527 5.2,-0.723 11.86,-2.91 11.86,-5.859 0,-2.93 -6.66,-5.117 -13.34,-5.117 -12.6,0 -34.81,2.187 -55.55,2.187 -20.76,0 -31.86,-2.187 -42.97,-2.187 -8.89,0 -12.6,2.187 -12.6,4.394 0,2.93 4.46,5.137 12.6,6.582 20.74,3.672 26.68,9.531 28.15,29.317 2.22,30.761 2.22,68.867 2.22,147.246 0,74.746 0,104.043 -0.74,118.691 -0.72,16.133 -5.92,24.18 -28.91,27.852 -5.91,0.722 -11.09,3.652 -11.09,5.859 0,2.93 6.66,4.394 11.09,4.394 8.17,0 22.23,-2.207 42.25,-2.207 25.92,0 51.11,2.95 77.03,2.95 38.54,0 61.49,-7.344 80.76,-20.528 24.46,-15.39 35.55,-39.57 35.55,-63.007 0,-43.946 -30.35,-70.333 -67.4,-82.051 -4.46,-1.465 -4.46,-3.653 -1.49,-9.532 13.34,-24.16 42.23,-65.195 65.2,-95.234 17.77,-23.437 30.37,-35.176 41.48,-46.152 15.55,-14.668 33.34,-20.508 45.92,-20.508 6.68,0 5.2,-4.414 0,-7.344 -5.18,-2.929 -14.06,-4.394 -28.14,-4.394 -38.54,0 -57.02,16.855 -81.49,42.5 -28.9,30.761 -70.39,95.976 -82.97,112.832 -5.93,6.582 -17.03,10.976 -24.45,12.441 -5.18,0.742 -17.77,1.465 -26.68,1.465 -2.97,0 -5.18,-5.117 -5.18,-10.254 v -68.125" /><path
         id="path32"
         style="fill:#10427a;fill-opacity:1;fill-rule:nonzero;stroke:none"
         d="m 3276.97,731.359 c -9.98,-16.211 -13.52,-33.879 -13.52,-44.472 0,-7.903 3.33,-13.508 11.02,-13.508 3.74,0 7.69,2.285 13.72,10.801 7.07,9.777 15.38,33.879 15.38,46.144 0,6.856 -2.08,14.129 -10.19,14.129 -3.74,0 -9.76,-2.285 -16.41,-13.094 z m 41.98,-7.687 c 0,-19.539 -9.36,-42.188 -24.74,-52.793 -6.23,-4.149 -13.71,-7.481 -20.98,-7.481 -16.84,0 -26.19,17.668 -25.98,32.422 0.21,19.543 11.22,40.11 24.1,49.883 6.45,4.777 17.67,8.106 22.24,8.106 16.41,0 25.36,-15.176 25.36,-30.137" /><path
         id="path34"
         style="fill:#10427a;fill-opacity:1;fill-rule:nonzero;stroke:none"
         d="m 3397.52,751.523 c 3.95,0.207 4.79,-1.043 4.79,-2.293 0,-1.867 -2.08,-6.23 -4.79,-6.855 -2.08,-0.41 -11.84,-0.832 -16,-1.035 -1.24,0 -4.78,-1.047 -5.4,-3.332 -9.77,-46.133 -16.21,-70.449 -20.36,-85.828 -4.37,-15.793 -9.98,-22.657 -22.03,-30.137 -9.56,-5.82 -16.64,-7.891 -21.62,-7.891 -4.99,0 -14.34,3.946 -14.34,10.797 0,3.957 2.08,8.735 4.16,9.985 1.03,0.41 6.02,1.66 7.06,0.625 4.99,-4.786 11.01,-8.938 14.97,-8.938 4.98,0 9.14,1.453 13.51,18.074 6.02,22.864 19.74,85.422 21.4,93.735 0,0.828 -0.42,2.488 -1.45,2.488 l -13.51,-0.41 c -0.84,0 -2.29,1.66 -2.29,2.695 0,3.125 3.53,6.652 4.36,6.652 1.67,0.215 9.98,0.625 13.52,0.829 1.45,0 2.49,2.082 2.91,2.5 5.6,18.703 15.99,39.074 30.34,48.214 7.48,4.786 14.75,6.446 18.5,6.446 13.71,0 19.53,-7.481 19.53,-14.961 0,-2.082 -0.83,-6.653 -4.37,-9.356 -1.66,-1.25 -4.36,-2.082 -5.82,-2.082 -1.03,0 -3.74,1.25 -3.94,2.91 -1.04,8.731 -4.37,14.133 -12.27,14.133 -2.29,0 -6.86,-2.082 -11.02,-7.902 -3.94,-5.809 -9.76,-20.566 -13.5,-38.027 -0.21,-0.829 1.25,-1.875 1.45,-1.875 l 16.21,0.839" /><path
         id="path36"
         style="fill:#10427a;fill-opacity:1;fill-rule:nonzero;stroke:none"
         d="m 1473.27,795.137 c 10.25,0 15.86,-1.66 29.42,-1.66 10.9,0 16.52,0.664 25.11,0.664 6.94,0 9.59,-1.981 9.59,-3.633 0,-2.313 -1.33,-4.297 -8.93,-5.945 -9.58,-1.993 -14.87,-3.977 -14.87,-16.536 -0.33,-18.836 0,-41.972 0.33,-63.125 0.33,-21.484 9.92,-35.691 15.21,-39.992 6.28,-4.629 17.84,-9.578 29.08,-9.578 21.15,0 39,5.613 42.63,45.273 1.66,23.801 1.32,61.809 1.32,65.774 -0.99,10.574 -2.64,16.523 -18.17,19.168 -3.64,0.664 -6.94,2.648 -6.94,4.961 0,2.969 4.29,3.633 8.59,3.633 8.26,0 7.27,-0.664 15.53,-0.664 13.22,0 24.79,1.66 32.06,1.66 4.96,0 7.6,-2.313 7.6,-3.309 0,-3.301 -3.3,-4.629 -7.6,-5.617 -12.22,-2.977 -15.86,-6.941 -16.19,-20.496 -0.33,-9.25 -1.65,-27.102 -2.31,-46.926 -0.67,-27.43 -6.28,-52.883 -23.8,-66.766 -9.59,-7.929 -22.48,-12.89 -39.99,-12.89 -18.18,0 -33.05,5.625 -42.31,13.555 -13.88,11.562 -21.15,28.093 -21.15,68.417 0,8.915 -0.33,46.59 -0.99,52.547 -0.33,3.301 -1.32,9.25 -14.54,12.227 -3.97,0.988 -7.6,3.633 -7.6,5.285 0,2.977 3.63,3.973 8.92,3.973" /><path
         id="path38"
         style="fill:#10427a;fill-opacity:1;fill-rule:nonzero;stroke:none"
         d="m 1671.87,794.805 c 7.6,0 29.74,-1.981 37.34,-1.981 2.65,0 4.3,-1.328 6.62,-4.297 6.27,-7.941 13.55,-15.207 22.14,-25.117 8.92,-10.254 51.89,-56.855 68.74,-74.699 0.33,-0.332 2.32,-0.664 2.32,1.316 0.33,18.188 1.98,61.477 0.33,77.348 -1,9.578 -4.63,14.871 -20.49,18.504 -2.65,0.988 -6.95,2.316 -6.95,5.285 0,3.641 6.95,3.641 7.94,3.641 11.23,0 19.83,-1.328 28.09,-1.328 6.61,0 14.87,1.328 23.13,1.328 3.31,0 6.95,-1.328 6.95,-3.641 0,-2.316 -1.66,-3.301 -6.95,-5.285 -12.89,-3.633 -15.53,-7.93 -16.85,-20.82 -1.32,-12.559 -2.98,-54.864 -2.98,-74.032 0,-18.515 1,-40.324 1,-42.636 0,-5.293 -1.33,-8.926 -4.3,-8.926 -2.32,0 -7.27,2.644 -9.92,4.961 -5.61,6.609 -18.5,24.121 -36.68,43.621 -15.2,16.523 -38.34,44.953 -57.84,65.441 -0.66,0.996 -2.97,0.996 -2.97,-1.32 -0.33,-11.238 -1.99,-59.16 -0.33,-80.977 0.99,-10.578 8.59,-15.203 18.51,-18.503 3.63,-1.329 5.94,-2.649 5.94,-4.961 0,-3.301 -4.63,-4.297 -7.6,-4.297 -0.99,0 -11.23,0.996 -20.49,0.996 -8.26,0 -22.15,-1.985 -29.42,-1.985 -4.29,0 -7.93,0.989 -7.93,4.297 0,1.653 1.32,2.969 7.61,4.621 15.86,3.973 17.84,9.918 18.83,18.184 0.66,8.262 2.65,39.324 2.65,68.418 0,15.527 -0.33,24.453 -0.66,27.098 -0.34,2.636 -5.29,10.91 -11.9,15.859 -2.98,2.316 -6.61,3.965 -13.55,5.293 -5.95,0.988 -8.6,2.637 -8.6,5.285 0,1.328 3.97,3.309 8.27,3.309" /><path
         id="path40"
         style="fill:#10427a;fill-opacity:1;fill-rule:nonzero;stroke:none"
         d="m 1890.96,794.473 c 2.64,-0.332 25.78,-0.996 35.36,-0.996 10.25,0 24.79,0.996 32.06,1.984 2.31,0.332 7.27,-1.984 7.27,-3.633 0,-2.316 -4.29,-5.285 -8.26,-5.949 -15.87,-4.629 -17.18,-7.274 -17.85,-19.168 -0.66,-7.277 -0.66,-24.133 -0.66,-45.606 0,-18.847 0,-35.703 0.33,-42.636 0.66,-18.84 2.98,-21.817 18.51,-25.449 3.96,-0.997 7.6,-3.645 7.6,-6.614 0,-2.312 -3.3,-2.976 -6.61,-2.976 -9.25,0 -18.18,0.996 -32.39,0.996 -9.58,0 -27.1,-1.653 -33.38,-1.653 -4.96,0 -7.93,1.321 -7.93,3.633 0,2.969 4.96,5.285 7.93,6.282 15.86,3.964 18.84,7.593 19.5,20.156 0.33,5.957 0.66,16.199 0.66,27.105 0,34.699 0,57.836 -0.33,63.129 -0.99,14.207 -6.61,18.504 -19.5,22.137 -5.95,1.984 -6.94,4.297 -6.94,6.281 0,1.328 0.99,3.309 4.63,2.977" /><path
         id="path42"
         style="fill:#10427a;fill-opacity:1;fill-rule:nonzero;stroke:none"
         d="m 2007.6,795.137 c 6.28,0 19.5,-1.66 30.08,-1.66 9.91,0 19.5,0.996 27.1,0.996 6.61,0 8.59,-1.981 8.59,-3.965 0,-1.981 -2.31,-3.641 -7.59,-5.293 -12.89,-2.645 -12.24,-8.262 -9.26,-15.86 4.3,-10.574 9.26,-24.128 16.19,-40.984 7.61,-16.855 15.54,-38.996 19.5,-43.293 1.33,-1.328 2.65,-2.976 3.97,0.656 3.96,9.254 25.78,62.801 31.07,77.996 4.95,14.875 4.3,18.516 -8.92,21.817 -2.98,0.996 -6.95,3.301 -6.95,5.293 0,0.988 2.65,3.633 7.93,3.633 8.93,0 13.22,-0.996 21.49,-0.996 11.57,0 21.81,1.66 27.1,1.66 3.64,0 7.27,-0.996 7.27,-3.309 0,-3.301 -3.96,-4.629 -8.59,-5.949 -10.58,-2.645 -16.86,-7.93 -25.12,-23.465 -7.6,-13.555 -16.19,-36.359 -26.77,-59.824 -15.87,-35.031 -21.15,-51.887 -22.81,-55.852 -1.32,-3.965 -5.95,-8.925 -8.59,-8.925 -2.31,0 -4.3,3.632 -4.96,6.613 -0.66,2.644 -5.62,19.5 -12.22,34.695 -7.61,17.52 -30.74,72.715 -40.66,92.219 -3.96,7.265 -8.59,12.226 -20.16,14.871 -2.97,0.988 -7.27,2.637 -7.27,4.953 0,3.309 4.95,3.973 9.58,3.973" /><path
         id="path44"
         style="fill:#10427a;fill-opacity:1;fill-rule:nonzero;stroke:none"
         d="m 2271.65,726.055 c 14.2,0 15.85,1.652 20.48,12.89 1.65,2.981 3.97,6.614 6.28,6.614 2.65,0 2.98,-3.301 2.98,-7.598 0,-2.316 -0.99,-6.613 -0.99,-15.207 0,-9.59 0.99,-10.574 0.99,-17.52 0,-7.273 -1.98,-9.257 -4.63,-9.257 -1.98,0 -3.63,2.648 -5.29,6.613 -2.97,6.609 -4.3,9.59 -7.27,10.906 -3.96,1.32 -23.46,1.984 -28.76,1.32 -0.98,0 -2.63,-2.304 -3.3,-4.621 -0.99,-5.957 -1.31,-39.336 0.67,-47.265 0.32,-1.317 4.29,-4.629 5.61,-5.282 1.99,-1.328 12.23,-3.644 19.84,-3.644 7.59,0 16.85,0.664 21.15,1.984 10.24,2.977 14.21,4.625 23.79,19.5 2.64,4.297 4.63,6.614 6.61,6.614 3.31,0 3.31,-5.618 3.31,-7.278 0,-5.281 -6.61,-25.769 -8.93,-29.082 -1.32,-2.312 -3.31,-2.969 -10.57,-2.969 -31.07,0 -30.74,1.653 -76.02,1.653 -10.57,0 -21.81,-1.653 -29.74,-1.653 -4.3,0 -9.92,0.989 -9.92,4.297 0,2.969 3.97,4.621 7.6,5.618 18.51,4.296 19.17,8.257 20.16,19.824 0.66,8.926 0.99,30.41 0.99,51.894 0,15.203 0,32.059 -0.66,46.27 -0.33,6.941 -2.31,11.57 -16.19,14.871 -3.97,0.996 -7.93,2.648 -7.93,5.617 0,2.313 3.63,3.641 8.92,3.641 5.95,0 16.53,-1.328 29.09,-1.328 63.45,0 64.77,-0.332 72.7,1.328 1.98,0.332 3.97,-1.66 3.97,-2.977 0,-9.582 2.31,-23.469 2.31,-28.098 0,-3.964 -2.31,-5.945 -3.3,-5.945 -1.65,0 -4.3,1.328 -6.94,6.61 -5.95,12.226 -9.91,16.523 -20.16,17.851 -4.63,0.324 -8.26,1.32 -32.72,1.32 -1.32,0 -2.65,-2.98 -2.97,-4.296 -1,-4.961 -1.33,-38.34 -0.67,-48.586 0,-1.649 1.32,-3.301 3.97,-3.965 5.29,-0.664 12.56,-0.664 15.54,-0.664" /><path
         id="path46"
         style="fill:#10427a;fill-opacity:1;fill-rule:nonzero;stroke:none"
         d="m 2418.69,783.898 c -1.65,-0.664 -3.3,-2.648 -3.3,-5.293 0,-3.3 -1,-49.57 -1,-52.55 0,-1.981 1.33,-3.633 3.31,-3.633 14.54,0 31.4,2.648 35.69,5.617 4.96,3.641 13.88,12.227 13.88,25.449 0,13.887 -10.58,32.059 -39.33,32.059 -3.3,0 -6.94,-0.664 -9.25,-1.649 z m -46.61,9.911 c 7.94,0 14.88,0 18.52,0 7.93,0 20.82,1.328 48.25,1.328 21.49,0 36.03,-4.961 42.97,-12.235 8.26,-7.597 11.9,-16.191 11.9,-26.105 0,-23.133 -18.51,-33.387 -28.43,-36.356 -0.66,-0.332 -1.65,-1.652 -1.32,-1.984 6.61,-12.559 19.83,-34.043 33.38,-49.246 7.61,-8.266 18.18,-16.523 27.43,-18.176 4.96,-0.996 5.95,-1.66 5.95,-4.629 0,-3.965 -7.6,-5.945 -19.83,-5.945 -13.55,0 -25.78,4.617 -39.99,20.484 -5.95,6.614 -24.46,36.36 -29.74,44.289 -2.98,4.629 -12.56,8.926 -20.17,8.926 -1.32,0 -2.97,-0.332 -5.28,-2.312 -0.67,-0.664 -1.33,-1.653 -1.33,-2.649 0,-6.941 0.33,-24.453 1,-42.304 0.33,-9.911 5.94,-11.243 14.54,-13.875 2.64,-0.665 6.61,-2.317 6.61,-4.961 0,-3.965 -5.62,-4.629 -8.93,-4.629 -10.57,0 -17.52,0.996 -25.78,0.996 -10.24,0 -20.49,-2.317 -30.73,-2.317 -5.63,0 -8.93,1.653 -8.93,3.965 0,1.985 2.65,4.629 8.26,5.949 14.88,3.629 17.19,6.61 17.86,21.153 0.33,6.609 1.65,35.359 1.65,66.433 0,14.211 0.33,22.473 -0.34,30.403 -0.66,6.941 -0.98,12.234 -17.52,14.871 -4.95,0.996 -8.26,2.98 -8.26,5.293 0,2.316 3.97,3.633 8.26,3.633" /><path
         id="path48"
         style="fill:#10427a;fill-opacity:1;fill-rule:nonzero;stroke:none"
         d="m 2653.98,793.477 c 2.31,-0.332 3.3,-4.297 3.3,-7.93 0,-9.578 0.33,-17.188 -0.32,-21.484 -1,-6.278 -3.64,-7.266 -4.63,-7.266 -2.98,0 -4.3,3.965 -5.29,7.93 -2.64,9.582 -6.94,14.875 -11.23,18.507 -4.3,3.633 -11.91,6.61 -19.84,6.61 -16.52,0 -27.76,-11.571 -27.76,-25.781 0,-11.231 9.26,-20.157 20.49,-26.434 10.57,-5.949 19.5,-10.246 29.09,-15.871 13.88,-7.93 25.12,-20.156 25.12,-38.672 0,-15.195 -10.25,-27.754 -19.84,-33.711 -6.94,-4.617 -22.14,-10.242 -36.68,-10.242 -19.83,0 -34.04,4.629 -41.65,10.242 -2.65,1.66 -3.3,4.961 -3.63,6.945 -0.33,3.961 -2.98,19.832 -2.98,24.785 0,6.278 2.31,8.922 4.63,8.922 2.98,0 3.96,-3.629 5.29,-7.261 1.65,-4.297 4.95,-11.243 7.6,-15.539 8.26,-10.907 19.83,-18.836 34.37,-18.836 18.51,0 27.44,13.222 27.44,24.453 0,12.89 -6.95,19.832 -19.17,27.429 -9.92,5.957 -18.84,10.579 -26.12,15.207 -11.89,7.606 -27.1,20.489 -27.1,40.321 0,24.785 20.49,42.969 53.55,42.969 16.85,0 26.1,-3.965 35.36,-5.293" /><path
         id="path50"
         style="fill:#10427a;fill-opacity:1;fill-rule:nonzero;stroke:none"
         d="m 2716.75,794.473 c 2.64,-0.332 25.77,-0.996 35.36,-0.996 10.25,0 24.79,0.996 32.06,1.984 2.32,0.332 7.27,-1.984 7.27,-3.633 0,-2.316 -4.3,-5.285 -8.26,-5.949 -15.86,-4.629 -17.19,-7.274 -17.84,-19.168 -0.67,-7.277 -0.67,-24.133 -0.67,-45.606 0,-18.847 0,-35.703 0.33,-42.636 0.66,-18.84 2.97,-21.817 18.51,-25.449 3.97,-0.997 7.6,-3.645 7.6,-6.614 0,-2.312 -3.3,-2.976 -6.6,-2.976 -9.26,0 -18.19,0.996 -32.4,0.996 -9.59,0 -27.1,-1.653 -33.37,-1.653 -4.97,0 -7.94,1.321 -7.94,3.633 0,2.969 4.96,5.285 7.94,6.282 15.85,3.964 18.83,7.593 19.49,20.156 0.33,5.957 0.66,16.199 0.66,27.105 0,34.699 0,57.836 -0.33,63.129 -0.99,14.207 -6.61,18.504 -19.5,22.137 -5.95,1.984 -6.94,4.297 -6.94,6.281 0,1.328 0.99,3.309 4.63,2.977" /><path
         id="path52"
         style="fill:#10427a;fill-opacity:1;fill-rule:nonzero;stroke:none"
         d="m 2935.84,793.477 c 37.36,0 40.33,2.316 48.6,7.609 1.32,0.652 4.95,-0.996 4.95,-4.961 -0.66,-14.875 1,-28.43 1,-32.062 0,-4.629 -2.98,-7.266 -4.63,-7.266 -2.32,0 -4.3,2.316 -5.3,5.949 -5.94,17.188 -11.23,18.172 -18.17,18.504 -6.94,0.332 -25.45,0 -36.03,-0.984 -1.31,0 -2.31,-2.981 -2.64,-4.629 -0.66,-4.961 -0.66,-41.653 -0.66,-75.364 0,-18.171 0.66,-29.082 2.31,-34.699 1.99,-7.605 4.96,-8.922 18.51,-12.554 5.95,-1.329 8.27,-3.313 8.27,-5.625 0,-2.317 -4.63,-4.297 -8.93,-4.297 -13.88,0 -17.19,1.328 -33.05,1.328 -8.59,0 -26.44,-1.653 -34.7,-1.653 -4.63,0 -8.27,1.985 -8.27,4.622 0,2.644 4.97,4.296 9.26,5.293 18.51,4.628 18.84,8.589 19.49,21.484 1,29.082 1.99,63.457 1.99,101.797 0,0.652 -1.32,3.633 -3.3,3.965 -5.95,0.984 -26.45,2.636 -33.38,1.98 -6.28,-0.664 -10.91,-3.641 -16.53,-12.559 -3.97,-5.945 -4.96,-8.925 -7.6,-8.925 -2.65,0 -3.97,3.965 -3.97,6.613 0.33,6.277 3.97,21.805 3.97,29.746 0,3.965 3.96,5.945 4.96,5.945 2.31,0 4.63,-2.644 5.94,-3.964 2.98,-2.645 9.92,-5.293 44.62,-5.293 h 43.29" /><path
         id="path54"
         style="fill:#10427a;fill-opacity:1;fill-rule:nonzero;stroke:none"
         d="m 3030.01,795.137 c 6.62,0 22.81,-1.66 32.72,-1.66 11.24,0 16.2,0.996 23.13,0.996 3.97,0 7.61,-1.649 7.61,-3.633 0,-2.645 -3.31,-4.961 -7.27,-5.957 -9.58,-2.313 -8.93,-6.934 -6.62,-12.227 2.65,-6.941 17.19,-32.39 27.77,-51.23 0.66,-0.985 2.98,-0.653 3.3,0 1.66,2.98 24.13,41.984 29.09,52.883 3.3,6.609 2.32,8.261 -7.27,11.238 -5.95,1.652 -6.95,3.301 -6.95,5.293 0,1.984 2.98,3.633 7.94,3.633 8.26,0 8.93,-0.996 18.51,-0.996 5.28,0 24.13,1.328 26.11,1.328 2.97,0 7.93,-0.996 7.93,-3.309 0,-3.633 -5.29,-5.617 -7.93,-5.949 -15.54,-2.645 -18.18,-6.942 -28.43,-19.832 -8.92,-10.899 -25.78,-39.66 -32.39,-52.883 -1.32,-2.637 -2.31,-4.617 -2.64,-12.227 -0.33,-7.265 -0.33,-26.433 0.33,-34.042 0.99,-7.93 4.96,-10.911 15.87,-13.543 5.28,-1.329 9.25,-2.317 9.25,-5.293 0,-2.317 -2.64,-4.297 -8.59,-4.297 -12.56,0 -12.24,0.996 -24.8,0.996 -9.24,0 -26.1,-1.653 -38,-1.653 -5.62,0 -8.6,0.989 -8.6,4.297 0,1.321 2.32,3.633 6.61,4.621 17.19,3.641 20.82,7.606 21.16,13.219 0.33,6.281 0.99,26.449 0.99,31.731 0,7.929 -0.33,8.261 -2.31,13.554 -4.3,10.91 -24.13,44.942 -31.4,54.532 -9.26,13.878 -12.22,17.843 -25.78,21.484 -4.96,1.32 -7.27,3.301 -7.27,5.617 0,1.317 2.97,3.309 7.93,3.309" /><path
         id="path56"
         style="fill:#10427a;fill-opacity:1;fill-rule:nonzero;stroke:none"
         d="m 736.648,417.996 c 0.067,1.457 0.125,2.902 0.165,4.25 -0.04,-1.367 -0.098,-2.773 -0.165,-4.25 z m -0.464,-8.258 c 0.121,1.739 0.238,3.477 0.324,5.098 -0.086,-1.633 -0.203,-3.352 -0.324,-5.098 z m -0.758,-9.152 c 0.07,0.773 0.14,1.523 0.211,2.277 -0.071,-0.754 -0.133,-1.496 -0.211,-2.277 z m -0.703,-6.707 c 0.004,0.039 0.007,0.074 0.011,0.113 -0.004,-0.039 -0.007,-0.074 -0.011,-0.113 z m 2.148,30.613 c 0.043,2.012 0.07,3.946 0.07,5.664 0,-1.718 -0.023,-3.652 -0.07,-5.664 z M 86.4688,402.941 c 0.0742,-0.793 0.1406,-1.574 0.2226,-2.382 -0.082,0.808 -0.1484,1.589 -0.2226,2.382 z m -0.8672,11.914 c 0.0937,-1.703 0.2148,-3.515 0.3398,-5.343 -0.125,1.836 -0.2461,3.633 -0.3398,5.343 z m -0.3047,7.383 c 0.039,-1.359 0.0976,-2.804 0.164,-4.269 -0.0664,1.484 -0.125,2.91 -0.164,4.269 z m 2.0742,-28.207 c 0.0078,-0.078 0.0234,-0.164 0.0312,-0.242 -0.0078,0.078 -0.0234,0.164 -0.0312,0.242 z m -2.1367,30.492 c -0.043,2.008 -0.0703,3.915 -0.0703,5.633 0,-1.711 0.0312,-3.633 0.0703,-5.633 z m 736.8826,5.79 -22.652,3.273 c -16.637,2.41 -37.199,5.379 -62.524,8.426 v 258.164 c 2.051,4.551 28.02,62.422 28.02,62.422 l -16.484,2.754 c -1.614,0.273 -162.762,26.953 -337.403,26.953 -174.679,0 -335.8592,-26.68 -337.4724,-26.953 l -16.4922,-2.754 c 0,0 26.0156,-57.871 28.0547,-62.422 V 442.012 C 59.8398,438.965 39.2773,435.996 22.6484,433.586 L 0,430.391 4.94922,417.285 C 9.57031,405.098 25.207,372.813 30.1836,362.637 26.457,344.258 23.6133,321.25 22.8438,299.402 l -0.4922,-13.23 13.125,1.789 c 18.9414,2.469 44.8711,5.437 75.4454,8.406 -0.008,0.031 -0.02,0.059 -0.027,0.078 8.984,-24.461 20.953,-50.722 37.152,-77.949 53.84,-90.273 134.277,-160.1366 239.109,-207.6171 -0.027,0.0195 18.567,-8.43749 18.567,-8.43749 L 411.074,0 435.012,10.8984 c 104.785,47.461 185.242,117.3046 239.097,207.5896 16.18,27.196 28.133,53.438 37.114,77.891 -0.008,-0.012 -0.008,-0.012 -0.008,-0.012 30.562,-2.976 56.488,-5.937 75.445,-8.406 l 13.098,-1.789 -0.512,13.23 c -0.777,21.848 -3.594,44.856 -7.281,63.235 4.91,10.176 20.574,42.461 25.242,54.648 l 4.91,13.028" /><path
         id="path58"
         style="fill:#fddc04;fill-opacity:1;fill-rule:nonzero;stroke:none"
         d="m 806.785,421.289 c -17.918,2.559 -40.73,5.977 -69.844,9.504 0,-0.363 0,-0.637 0,-0.637 0,-21.433 -2.836,-66.679 -21.878,-122.949 30.417,-3.008 55.601,-5.918 73.062,-8.191 -0.898,23.261 -3.855,47.722 -7.734,65.359 0,0 21.086,43.027 26.394,56.914 z m -721.6209,9.504 c -29.0938,-3.527 -51.8985,-6.945 -69.8047,-9.504 5.3047,-13.887 26.3203,-56.914 26.3203,-56.914 -3.8281,-17.637 -6.8281,-42.098 -7.7344,-65.359 17.4844,2.273 42.6953,5.183 73.1247,8.191 -19.0583,56.289 -21.9059,101.523 -21.9059,122.949 0,0 0,0.274 0,0.637" /><path
         id="path60"
         style="fill:#fddc04;fill-opacity:1;fill-rule:nonzero;stroke:none"
         d="m 333.02,717.168 c 1.609,0.645 2.964,1.262 4.089,1.836 1.133,0.566 2,1.105 2.657,1.582 0.632,0.469 1.054,0.898 1.218,1.242 0.168,0.32 0.293,1.043 0.383,2.176 0.078,1.133 0.137,2.676 0.156,4.609 0.032,1.934 0.047,4.278 0.047,7.012 0,0.918 0,1.875 0,2.871 0,0.996 0,2.031 0,3.106 0,1.086 0,2.109 0,3.117 0,0.996 0,1.941 0,2.871 0,2.703 -0.015,5.019 -0.047,6.933 -0.019,1.922 -0.078,3.438 -0.156,4.559 -0.09,1.133 -0.215,1.867 -0.383,2.207 -0.183,0.352 -0.625,0.734 -1.265,1.133 -0.649,0.391 -1.535,0.793 -2.649,1.211 -1.125,0.43 -2.468,0.859 -4.05,1.308 0,0.481 0,0.723 0,1.192 1.394,0.058 2.75,0.137 4.097,0.234 1.36,0.078 2.68,0.196 3.977,0.313 1.308,0.117 2.597,0.254 3.847,0.41 1.258,0.148 2.5,0.324 3.719,0.508 1.223,0.187 3.457,0.722 3.574,0.617 0.11,-0.098 -0.039,-1.496 -0.054,-2.434 -0.032,-0.937 -0.063,-2.011 -0.078,-3.222 -0.024,-1.192 -0.039,-2.528 -0.059,-4.004 -0.023,-1.453 -0.039,-3.055 -0.063,-4.785 -0.007,-1.739 -0.015,-3.594 -0.015,-5.606 -0.012,-1.992 -0.024,-4.121 -0.024,-6.394 0,-1.086 0,-2.122 0,-3.125 0,-0.997 0,-1.965 0,-2.883 0,-2.754 0.012,-5.098 0.039,-7.051 0.032,-1.941 0.09,-3.484 0.176,-4.629 0.078,-1.133 0.207,-1.863 0.383,-2.187 0.188,-0.332 0.606,-0.731 1.262,-1.192 0.652,-0.449 1.519,-0.957 2.637,-1.523 1.101,-0.567 2.429,-1.2 3.984,-1.895 0,-0.605 0,-0.918 0,-1.523 -1.457,0.117 -2.832,0.215 -4.145,0.285 -1.304,0.086 -2.539,0.144 -3.679,0.183 -1.16,0.059 -2.239,0.079 -3.235,0.098 -0.996,0.02 -1.914,0.031 -2.754,0.031 -0.894,-0.011 -1.843,-0.031 -2.871,-0.058 -1.004,-0.031 -2.078,-0.09 -3.211,-0.149 -1.132,-0.058 -2.324,-0.136 -3.574,-0.214 -1.262,-0.079 -2.558,-0.176 -3.933,-0.274 0,0.598 0,0.899 0,1.504" /><path
         id="path62"
         style="fill:#fddc04;fill-opacity:1;fill-rule:nonzero;stroke:none"
         d="m 392.434,754.629 c 0,1.855 -0.325,3.566 -0.891,5 -0.574,1.437 -1.398,2.609 -2.395,3.418 -1.003,0.812 -2.207,1.25 -3.523,1.25 -1.172,-0.02 -2.234,-0.352 -3.145,-0.938 -0.91,-0.593 -1.652,-1.433 -2.175,-2.461 -0.532,-1.015 -0.813,-2.226 -0.813,-3.535 0,-1.133 0.203,-2.175 0.598,-3.203 0.406,-1.015 1.004,-1.992 1.805,-2.957 0.793,-0.969 1.765,-1.926 2.968,-2.883 1.184,-0.976 3.457,-3.047 4.129,-2.976 0.449,0.047 1.496,1.687 1.992,2.617 0.52,0.926 0.879,1.922 1.106,3.016 0.234,1.105 0.344,2.304 0.344,3.652 z m -14.329,-30.508 c 0,-1.758 0.208,-3.359 0.606,-4.766 0.383,-1.406 0.957,-2.636 1.68,-3.632 0.703,-0.996 1.574,-1.778 2.547,-2.305 1,-0.527 2.101,-0.82 3.285,-0.809 1.367,0 2.644,0.438 3.726,1.219 1.106,0.781 2.016,1.914 2.649,3.281 0.632,1.379 1.007,2.989 1.007,4.766 0,1.328 -0.214,2.559 -0.656,3.691 -0.429,1.153 -1.074,2.227 -1.953,3.301 -0.867,1.067 -1.973,2.11 -3.281,3.184 -1.32,1.074 -3.82,3.418 -4.641,3.359 -0.594,-0.039 -2.011,-2.012 -2.754,-3.172 -0.73,-1.164 -1.297,-2.433 -1.66,-3.789 -0.367,-1.347 -0.555,-2.793 -0.555,-4.328 z m -7.531,28.195 c 0,1.493 0.196,2.95 0.586,4.336 0.395,1.395 0.957,2.723 1.692,3.965 0.734,1.231 1.628,2.371 2.675,3.387 1.055,1.035 2.239,1.926 3.555,2.676 1.316,0.742 2.766,1.34 4.309,1.738 1.55,0.422 3.211,0.645 4.949,0.664 1.621,0.02 3.125,-0.176 4.504,-0.566 1.355,-0.379 2.605,-0.957 3.679,-1.68 1.082,-0.742 2.012,-1.621 2.786,-2.637 0.75,-0.996 1.328,-2.148 1.726,-3.367 0.391,-1.242 0.606,-2.57 0.606,-3.957 0,-1.406 -0.176,-2.715 -0.52,-3.965 -0.34,-1.258 -0.879,-2.461 -1.578,-3.613 -0.695,-1.152 -1.563,-2.266 -2.617,-3.379 -1.059,-1.102 -3.696,-3.184 -3.696,-3.301 0.012,-0.312 2.637,-1.914 3.743,-2.871 1.093,-0.945 2.05,-1.894 2.863,-2.871 0.816,-0.977 1.492,-1.98 2.027,-3.035 0.547,-1.047 0.942,-2.149 1.203,-3.332 0.274,-1.16 0.411,-2.41 0.411,-3.75 0,-1.621 -0.176,-3.125 -0.508,-4.531 -0.332,-1.407 -0.852,-2.735 -1.563,-3.985 -0.703,-1.25 -1.593,-2.441 -2.683,-3.613 -1.094,-1.16 -2.246,-2.188 -3.45,-3.066 -1.203,-0.868 -2.453,-1.59 -3.75,-2.168 -1.308,-0.586 -2.668,-1.016 -4.089,-1.309 -1.426,-0.293 -2.891,-0.43 -4.426,-0.43 -1.477,0 -2.871,0.176 -4.168,0.508 -1.301,0.332 -2.512,0.832 -3.598,1.457 -1.094,0.625 -2.078,1.375 -2.937,2.254 -0.86,0.859 -1.602,1.855 -2.215,2.93 -0.598,1.074 -1.067,2.238 -1.379,3.476 -0.313,1.231 -0.481,2.539 -0.481,3.887 0,1.328 0.149,2.578 0.442,3.77 0.273,1.171 0.715,2.285 1.301,3.351 0.586,1.055 1.304,2.059 2.183,3.027 0.891,0.965 1.926,1.895 3.11,2.801 1.179,0.899 4.011,2.649 4.011,2.656 0.008,0.254 -2.734,2.032 -3.839,3.137 -1.09,1.082 -1.993,2.235 -2.711,3.438 -0.723,1.199 -1.262,2.468 -1.614,3.797 -0.359,1.32 -0.539,2.707 -0.539,4.171" /><path
         id="path64"
         style="fill:#fddc04;fill-opacity:1;fill-rule:nonzero;stroke:none"
         d="m 412.449,712.07 c 1.77,0.332 3.418,0.782 4.953,1.309 1.536,0.527 2.95,1.152 4.258,1.855 1.301,0.704 2.473,1.485 3.528,2.344 1.05,0.86 1.968,1.797 2.781,2.793 0.801,0.988 1.465,2.051 2.004,3.164 0.547,1.125 0.945,2.297 1.218,3.516 0.286,1.23 0.411,2.492 0.411,3.808 0,1.379 -0.164,2.637 -0.508,3.789 -0.34,1.133 -0.867,2.168 -1.551,3.067 -0.695,0.89 -1.547,1.652 -2.563,2.265 -1.011,0.625 -2.195,1.106 -3.535,1.426 -1.336,0.324 -2.832,0.5 -4.48,0.5 -0.652,0 -1.465,-0.039 -2.422,-0.109 -0.945,-0.067 -3.184,-0.371 -3.281,-0.254 -0.242,0.293 0.547,3.449 0.82,5.117 0.266,1.66 0.52,3.281 0.762,4.875 0.246,1.582 0.476,3.133 0.715,4.637 0.211,1.504 0.437,2.969 0.632,4.406 0.204,1.434 0.403,2.82 0.586,4.188 0.164,1.347 0.301,3.8 0.496,3.957 0.207,0.156 1.907,-0.325 3.032,-0.422 1.113,-0.098 2.34,-0.164 3.648,-0.215 1.34,-0.039 2.758,-0.059 4.289,-0.066 1.289,-0.012 2.528,-0.012 3.762,0 1.219,0.007 2.422,0.027 3.594,0.066 1.172,0.039 2.312,0.078 3.418,0.137 1.121,0.05 3.164,0.312 3.269,0.195 0.164,-0.176 -0.156,-2.129 -0.183,-3.223 -0.039,-1.101 -0.039,-2.226 -0.039,-3.367 0,-0.363 0,-1.125 0.015,-2.258 0.024,-1.132 0.063,-2.636 0.141,-4.511 -0.266,0 -0.403,0 -0.656,0.011 -0.633,1.192 -1.27,1.864 -1.993,2.235 -0.742,0.371 -1.562,0.449 -2.55,0.461 -0.504,0.007 -1.168,0.007 -1.903,0.007 -1.387,0.02 -2.597,0.032 -3.73,0.04 -1.121,0.011 -2.176,0.019 -3.211,0.019 -1.035,0.012 -2.071,0.02 -3.203,0.02 -1.145,0 -2.344,0.019 -3.743,0.019 -0.234,-1.601 -0.41,-2.793 -0.578,-3.984 -0.183,-1.199 -0.347,-2.403 -0.593,-4.004 1.242,0.097 2.421,0.09 3.586,0.09 1.793,-0.012 3.484,-0.129 5.039,-0.364 1.543,-0.242 2.957,-0.593 4.265,-1.062 1.297,-0.461 2.449,-1.047 3.489,-1.75 1.035,-0.703 1.941,-1.504 2.71,-2.43 0.786,-0.929 1.426,-1.965 1.946,-3.125 0.508,-1.164 0.91,-2.433 1.164,-3.82 0.254,-1.387 0.387,-2.891 0.387,-4.512 0,-1.367 -0.118,-2.695 -0.309,-3.984 -0.227,-1.297 -0.551,-2.547 -0.969,-3.758 -0.429,-1.203 -0.957,-2.375 -1.594,-3.488 -0.632,-1.114 -1.355,-2.188 -2.183,-3.192 -0.844,-1.008 -1.777,-1.965 -2.793,-2.863 -1.027,-0.887 -2.16,-1.719 -3.371,-2.48 -1.223,-0.762 -2.531,-1.454 -3.938,-2.071 -1.394,-0.625 -2.898,-1.172 -4.48,-1.64 -1.582,-0.469 -3.262,-0.848 -5.012,-1.153 -1.766,-0.293 -3.601,-0.508 -5.547,-0.625 0,1.77 0,2.649 0,4.414" /><path
         id="path66"
         style="fill:#fddc04;fill-opacity:1;fill-rule:nonzero;stroke:none"
         d="m 476.711,737.648 c 0,2.469 -0.07,4.754 -0.18,6.883 -0.113,2.129 -0.281,4.082 -0.508,5.86 -0.23,1.777 -0.503,3.398 -0.835,4.843 -0.333,1.426 -0.708,2.696 -1.133,3.789 -0.434,1.075 -0.91,1.993 -1.418,2.735 -0.528,0.734 -1.082,1.289 -1.68,1.672 -0.613,0.379 -1.25,0.574 -1.914,0.593 -0.891,0.02 -1.66,-0.203 -2.344,-0.683 -0.683,-0.488 -1.25,-1.211 -1.758,-2.207 -0.488,-0.977 -0.886,-2.227 -1.203,-3.711 -0.32,-1.504 -0.547,-3.242 -0.691,-5.254 -0.156,-2 -0.227,-4.266 -0.227,-6.785 0,-2.492 0.063,-4.817 0.16,-6.945 0.106,-2.137 0.274,-4.102 0.477,-5.887 0.203,-1.789 0.481,-3.399 0.789,-4.836 0.317,-1.426 0.676,-2.684 1.106,-3.77 0.429,-1.074 0.898,-1.961 1.406,-2.695 0.527,-0.711 1.101,-1.25 1.719,-1.609 0.617,-0.371 1.289,-0.547 2.011,-0.547 0.918,-0.012 1.707,0.222 2.422,0.711 0.684,0.488 1.27,1.222 1.758,2.199 0.488,0.984 0.879,2.215 1.172,3.699 0.305,1.485 0.539,3.215 0.652,5.195 0.149,1.993 0.219,4.25 0.219,6.75 z m -24.641,2.957 c 0,1.524 0.071,3.028 0.227,4.493 0.137,1.465 0.359,2.902 0.641,4.297 0.285,1.398 0.648,2.753 1.078,4.074 0.418,1.316 0.918,2.597 1.492,3.836 0.664,1.437 1.387,2.754 2.187,3.906 0.813,1.172 1.692,2.187 2.61,3.078 0.918,0.879 1.883,1.609 2.91,2.195 1.015,0.586 2.066,1.016 3.152,1.309 1.082,0.273 2.196,0.41 3.321,0.383 1.296,-0.039 2.539,-0.215 3.742,-0.539 1.199,-0.313 2.324,-0.77 3.406,-1.356 1.074,-0.597 2.082,-1.308 3.019,-2.16 0.926,-0.84 1.793,-1.797 2.567,-2.879 0.793,-1.086 1.484,-2.277 2.098,-3.586 0.609,-1.308 1.132,-2.734 1.566,-4.238 0.398,-1.523 0.738,-3.145 0.965,-4.863 0.207,-1.719 0.32,-3.535 0.32,-5.45 0,-2.136 -0.113,-4.199 -0.34,-6.132 -0.234,-1.953 -0.578,-3.778 -1.023,-5.508 -0.442,-1.719 -0.981,-3.32 -1.606,-4.805 -0.632,-1.472 -1.355,-2.832 -2.144,-4.043 -0.793,-1.219 -1.66,-2.304 -2.61,-3.25 -0.937,-0.949 -1.945,-1.75 -3.007,-2.394 -1.055,-0.645 -2.176,-1.133 -3.34,-1.465 -1.16,-0.332 -2.371,-0.508 -3.613,-0.496 -1.309,0 -2.547,0.156 -3.743,0.457 -1.179,0.304 -2.324,0.742 -3.386,1.328 -1.075,0.586 -2.079,1.32 -3.016,2.168 -0.922,0.859 -1.777,1.848 -2.551,2.949 -0.781,1.106 -1.472,2.344 -2.09,3.684 -0.593,1.336 -1.125,2.8 -1.543,4.375 -0.421,1.57 -0.742,3.242 -0.957,5.007 -0.214,1.778 -0.332,3.653 -0.332,5.625" /><path
         id="path68"
         style="fill:#fddc04;fill-opacity:1;fill-rule:nonzero;stroke:none"
         d="m 400.762,586.211 c 0,66.797 -54.278,121.074 -120.965,121.074 -66.75,0 -121.02,-54.277 -121.02,-121.074 0,-47.078 27.215,-87.957 66.727,-107.918 34.101,1.902 72.719,3.367 116.051,4.148 35.379,21.153 59.207,59.739 59.207,103.77 z m 70.176,-250.547 c -19.047,0.293 -38.958,0.469 -59.864,0.469 -20.918,0 -40.836,-0.176 -59.886,-0.469 -36.458,-20.879 -61.122,-60.098 -61.122,-105.078 0,-66.563 54.27,-120.938 121.008,-120.938 66.699,0 120.977,54.375 120.977,120.938 0,44.98 -24.668,84.199 -61.113,105.078 z m 71.464,371.621 c -66.75,0 -121.015,-54.277 -121.015,-121.074 0,-44.031 23.824,-82.617 59.222,-103.777 43.329,-0.774 81.942,-2.246 116.039,-4.153 39.5,19.961 66.711,60.84 66.711,107.93 0,66.797 -54.265,121.074 -120.957,121.074" /><path
         id="path70"
         style="fill:#10427a;fill-opacity:1;fill-rule:nonzero;stroke:none"
         d="m 453.828,335.879 c -13.84,0.148 -27.984,0.254 -42.754,0.254 -14.785,0 -28.941,-0.098 -42.793,-0.254 -41.519,-16.953 -70.879,-57.734 -70.879,-105.293 0,-62.625 50.989,-113.582 113.672,-113.582 62.625,0 113.594,50.957 113.594,113.582 0,47.559 -29.352,88.34 -70.84,105.293 z m -60.437,250.332 c 0,62.707 -50.957,113.723 -113.594,113.723 -62.68,0 -113.652,-51.016 -113.652,-113.723 0,-49.434 31.8,-91.465 75.984,-107.039 25.328,1.25 52.961,2.266 82.984,2.937 40.129,17.539 68.278,57.579 68.278,104.102 z m 149.011,113.723 c -62.675,0 -113.672,-51.016 -113.672,-113.723 0,-46.523 28.165,-86.563 68.333,-104.102 30.015,-0.683 57.644,-1.687 82.972,-2.949 44.16,15.586 75.949,57.617 75.949,107.051 0,62.707 -50.957,113.723 -113.582,113.723" /><path
         id="path72"
         style="fill:#ffffff;fill-opacity:1;fill-rule:nonzero;stroke:none"
         d="m 387.566,586.211 c 0,59.492 -48.347,107.891 -107.769,107.891 -59.465,0 -107.856,-48.399 -107.856,-107.891 0,-53.301 38.981,-97.578 89.922,-106.152 13.797,0.586 28.239,1.093 43.309,1.535 47.195,11.453 82.394,53.953 82.394,104.617 z m 154.836,107.891 c -59.472,0 -107.839,-48.399 -107.839,-107.891 0,-50.676 35.21,-93.176 82.453,-104.629 15.058,-0.43 29.504,-0.937 43.293,-1.523 50.914,8.574 89.859,52.843 89.859,106.152 0,59.492 -48.344,107.891 -107.766,107.891 z M 433.676,336.055 c -7.442,0.039 -14.903,0.078 -22.602,0.078 -7.707,0 -15.172,-0.039 -22.617,-0.078 -48.633,-10.442 -85.227,-53.739 -85.227,-105.469 0,-59.414 48.379,-107.766 107.844,-107.766 59.422,0 107.774,48.352 107.774,107.766 0,51.73 -36.567,95.027 -85.172,105.469" /><path
         id="path74"
         style="fill:#10427a;fill-opacity:1;fill-rule:nonzero;stroke:none"
         d="m 426.516,323.105 c -0.586,1.094 -1.914,1.817 -3.547,2.247 l -11.895,-1.524 c -4.89,-1.953 -14.695,-4.512 -14.695,-4.512 -1.035,-2.656 0.406,-4.394 1.25,-6.933 0.391,-1.199 0.871,-2.813 1.363,-4.492 l 8.606,-1.075 c 4.445,-0.566 4.445,-0.566 6.14,-0.664 l 1.379,-0.066 0.613,-0.051 c 2.586,-0.156 4.973,-0.254 6.95,-0.137 0.058,0.286 0.093,0.481 0.152,0.774 0.84,4.121 5.813,12.461 3.684,16.433" /><path
         id="path76"
         style="fill:#10427a;fill-opacity:1;fill-rule:nonzero;stroke:none"
         d="m 429.27,191.309 c -0.872,0.293 -1.813,0.5 -2.711,0.754 l -0.907,-4.797 -1.047,-10.391 c 1.036,-0.508 1.942,-1.055 2.59,-1.699 0.078,-0.067 0.16,-0.137 0.227,-0.227 2.551,-2.781 2.07,-7.594 -1.504,-10.418 -2.727,-2.011 -5.484,-3.379 -8.313,-4.297 0.153,1.582 0.293,3.184 0.415,4.727 0.386,5.215 0.679,8.574 1.035,12.297 0.281,2.93 0.601,6.094 1.062,10.574 0.125,1.133 0.735,3.594 1.184,6.309 0.457,2.761 0.75,5.82 0.222,8.086 -0.191,0.82 -0.718,1.445 -1.253,2.05 l -5.641,0.176 -0.547,0.039 c -5.406,0.352 -9.176,0.266 -11.898,0.039 0.273,-1.496 0.582,-2.949 0.699,-4.59 0.015,-0.449 0.047,-0.925 0.078,-1.406 0.164,-3.426 1.055,-6.758 1.402,-10.176 0.254,-2.382 1.438,-5.683 0.325,-7.937 -0.02,-0.039 -0.04,-0.09 -0.071,-0.149 -1.48,-2.656 -2.246,-5.839 -2.012,-9.382 0.286,-4.27 0.833,-4.731 1.055,-8.743 0.051,-0.949 0.18,-1.882 0.278,-2.832 -4.266,0.645 -10.602,2.383 -12.954,7.414 -2.476,5.34 3.039,9.422 0.09,10.516 -1.972,0.723 -6.914,-4.199 -6.14,-11.047 0.593,-5.32 3.629,-8.844 10.086,-12.664 2.523,-1.492 6.195,-2.754 9.707,-3.586 0.043,-2.742 -0.063,-4.851 0.617,-7.566 0.547,-2.149 -0.063,-4.805 1.734,-6.563 1.36,-1.328 2.063,-1.211 4.016,-1.972 4.133,2.187 4.969,9.218 5.176,12.773 0.035,0.567 0.121,1.465 0.207,2.332 6,0.317 11.597,1.848 15.664,4.895 8.894,6.699 12.234,13.703 11.172,22.109 -1.165,9.172 -6.958,12.988 -14.043,15.352" /><path
         id="path78"
         style="fill:#10427a;fill-opacity:1;fill-rule:nonzero;stroke:none"
         d="m 423.984,250.781 c -0.586,1.731 -1.777,2.559 -3.156,4.239 -2.051,2.468 -1.094,7.492 -0.711,10.722 0.215,1.836 0.352,3.723 0.43,5.645 0.043,1.172 0.012,2.363 0.019,3.547 l -3.601,1.375 c -2.375,0.937 -5.332,2.109 -6.699,2.336 -1.45,0.242 -4.422,0.554 -7.828,0.507 -0.204,-4.367 -0.083,-9.738 -2.196,-13.125 -1.14,-1.847 -1.988,-2.668 -2.273,-3.898 -0.125,-0.613 -0.11,-1.328 0.09,-2.313 0.562,-2.707 1.367,-5.453 2.109,-8.105 1.656,-5.938 2,-7.844 2.437,-13.918 0.012,-0.195 0.04,-0.488 0.071,-0.801 0.074,-0.722 0.179,-1.699 0.289,-2.762 2.816,0.243 5.707,0.45 8.812,0.594 h -0.039 l 7.332,0.274 2.375,0.078 c 0.188,1.609 0.336,3.164 0.43,4.59 0.039,0.656 0.754,3.379 1.328,5.976 0.52,2.305 0.957,4.5 0.781,5.039" /><path
         id="path80"
         style="fill:#10427a;fill-opacity:1;fill-rule:nonzero;stroke:none"
         d="m 443.926,293.477 c -0.535,-1.329 -2.488,-2.02 -4.617,-1.563 -2.297,0.488 -3.887,2.129 -3.547,3.652 0.332,1.524 2.441,2.364 4.746,1.875 0.344,-0.078 0.691,-0.195 1.015,-0.312 1.399,-0.508 3.348,-1.727 4.563,-4.649 0,0 -0.957,0.43 -2.16,0.997 z m 23.633,-3.172 c -0.118,0.847 -0.262,1.972 -1.399,2.683 -1.133,0.703 -9.043,3.946 -10.445,4.375 -1.406,0.418 -4.797,1.973 -6.352,2.813 -1.543,0.859 -0.562,1.426 -7.195,2.832 -6.641,1.406 -11.992,-0.852 -15.105,-1.973 -0.903,-0.332 -1.918,-0.527 -3.02,-0.644 -2.703,-0.282 -5.938,-0.059 -9.258,0.136 -4.656,0.286 -0.996,-0.066 -16.933,1.914 -0.457,0.059 -0.918,0.098 -1.368,0.157 -15.234,1.433 -26.062,-4.922 -29.968,-8.203 -18.403,-15.497 -14.219,-32.325 -12.817,-36.426 1.406,-4.082 3.598,-9.512 8.442,-13.399 7.578,-6.082 16.382,-7.402 25.41,-7.312 2.332,0.027 4.676,0.144 7.012,0.293 0.902,0.058 1.632,0.203 2.468,0.293 -0.39,5.222 -0.691,6.922 -2.218,12.363 l -0.25,0.879 c -0.684,2.461 -1.411,5 -1.946,7.605 -0.058,0.274 0.028,0.469 -0.012,0.723 -1.5,-0.203 -3.003,-0.312 -4.492,-0.273 -0.183,0 -0.379,0.019 -0.562,0.039 -4.121,0.449 -11.352,4.472 -9.602,11.816 1.367,5.828 4.285,8.508 10.906,11.328 3.059,1.309 6.583,1.953 9.954,2.227 5.339,0.437 10.3,-0.078 12.375,-0.43 2.957,-0.488 8.257,-2.949 12.156,-4.316 0.578,-0.196 1.113,-0.371 1.609,-0.52 1.809,-0.515 10.449,-1.969 17.649,-1.402 7.187,0.562 22.011,3.66 23.562,5.222 1.555,1.551 1.555,6.348 1.399,7.2" /><path
         id="path82"
         style="fill:#10427a;fill-opacity:1;fill-rule:nonzero;stroke:none"
         d="m 456.711,254.492 c -5.371,11.145 -17.539,14.641 -23.195,15.344 -0.735,0.098 -1.504,0.164 -2.325,0.234 -1.578,0.118 -3.332,0.106 -5.171,0.008 -0.098,-1.758 -0.2,-3.465 -0.375,-4.988 l -0.165,-1.223 c -0.128,-0.965 -0.375,-2.851 -0.375,-4.219 0,-0.527 0.063,-0.964 0.161,-1.257 0.195,-0.239 0.769,-0.871 0.769,-0.871 1.074,-1.161 2.395,-2.598 3.203,-4.961 0.235,-0.657 0.34,-1.329 0.34,-2.129 0,-0.782 -0.129,-1.739 -0.332,-2.871 1.008,-0.02 2.047,0.058 2.949,-0.204 1.379,-0.402 2.602,-1.125 3.559,-2.296 5.074,-6.239 2.207,-11.543 -1.164,-13.75 -1.68,-1.094 -6.004,-1.426 -11.36,-1.641 -3.433,-0.125 -7.312,-0.195 -11.187,-0.391 -4.68,-0.222 -9.199,-0.566 -13.645,-1.054 -1.535,-0.176 -3.039,-0.352 -4.543,-0.567 -14.656,-2.019 -20.171,-12.5 -21.675,-16.269 -4.614,-13.848 6.968,-21.992 18.777,-26.153 0.742,-0.254 1.492,-0.488 2.246,-0.722 0.93,-0.293 1.863,-0.567 2.781,-0.813 1.18,-0.308 2.399,-0.586 3.621,-0.855 -0.015,0.594 -0.214,1.699 -0.347,2.41 l -0.41,2.527 -0.594,3.938 c -0.363,2.07 -0.734,4.226 -0.844,6.554 l -0.066,1.297 -0.043,0.782 c -0.313,0.117 -0.653,0.246 -0.946,0.371 -0.71,0.332 -1.375,0.644 -1.98,0.976 -1.68,0.93 -2.871,1.887 -3.184,2.844 -0.5,2.449 1.707,3.875 4.942,4.707 6.738,1.719 17.937,0.789 18.738,0.75 2.387,-0.098 4.738,-0.184 7.031,-0.215 4.219,-0.058 8.266,0.059 11.993,0.715 3.644,0.625 6.73,1.504 10.097,3.016 3.828,1.718 10.129,5.058 14.946,15.664 2.859,6.355 3.14,14.16 -2.227,25.312" /><path
         id="path84"
         style="fill:#10427a;fill-opacity:1;fill-rule:nonzero;stroke:none"
         d="m 561.406,554.629 v 92.851 h 10.672 v -49.304 c 6.11,-5.012 9.985,-11.457 9.985,-18.645 0,-10.781 -8.403,-20.047 -20.657,-24.902 z m 0,-29.18 v 15.449 c 6.004,-1.894 9.883,-4.628 9.883,-7.722 0,-3.098 -3.879,-5.832 -9.883,-7.727 z m -47.468,7.727 c 0,3.015 3.683,5.711 9.453,7.597 v -15.199 c -5.77,1.887 -9.453,4.582 -9.453,7.602 z m -11.211,46.355 c 0,7.188 3.875,13.633 9.988,18.653 v 49.296 h 10.676 v -92.851 c -12.262,4.855 -20.664,14.121 -20.664,24.902 z m 36.89,67.949 v -96.289 c -3.722,0.188 -7.297,0.723 -10.672,1.602 v 94.687 z m 5.559,-104.101 c 3.832,-0.117 7.422,-0.508 10.676,-1.113 v -18.172 c -3.254,-0.617 -6.844,-1.008 -10.676,-1.125 z m -5.559,-20.391 c -3.847,0.137 -7.433,0.547 -10.672,1.184 v 18.008 c 3.239,0.633 6.825,1.043 10.672,1.187 z m 16.235,124.492 v -94.699 c -3.375,-0.879 -6.95,-1.402 -10.676,-1.59 v 96.289 z m 46.804,-58.007 c -9.043,16.093 -10.984,29.531 -10.984,36.289 v 21.718 h 3.594 v -4.746 c 1.16,-0.91 2.515,-1.445 3.972,-1.445 4.27,0 7.735,4.531 7.735,10.117 0,5.586 -3.465,10.117 -7.735,10.117 -1.457,0 -2.812,-0.527 -3.972,-1.445 v -4.726 h -3.594 c 0,10.488 0,19.707 0,19.707 h -19.594 v -19.707 h -10.672 v 0.8 c 0,1.536 -1.246,2.774 -2.777,2.774 -1.535,0 -2.777,-1.238 -2.777,-2.774 v -0.8 h -10.676 v 0.8 c 0,1.536 -1.246,2.774 -2.778,2.774 -1.535,0 -2.781,-1.238 -2.781,-2.774 v -0.8 h -10.672 v 0.8 c 0,1.536 -1.246,2.774 -2.777,2.774 -1.535,0 -2.777,-1.238 -2.777,-2.774 v -0.8 h -10.676 v 19.707 h -19.59 c 0,0 0,-9.219 0,-19.707 h -3.605 v 4.726 c -1.161,0.918 -2.508,1.445 -3.973,1.445 -4.27,0 -7.727,-4.531 -7.727,-10.117 0,-5.586 3.457,-10.117 7.727,-10.117 1.465,0 2.812,0.535 3.973,1.445 v 4.746 h 3.605 v -21.718 c 0,-6.758 -1.953,-20.196 -10.996,-36.289 -11.484,-20.418 -2.82,-51.922 -1.934,-55.496 2.559,-10.45 9.805,-29.239 13.758,-35.215 h 96.875 c 3.945,5.976 11.223,24.765 13.781,35.215 0.871,3.574 9.532,35.078 -1.953,55.496" /><path
         id="path86"
         style="fill:#10427a;fill-opacity:1;fill-rule:nonzero;stroke:none"
         d="m 70.5078,463.859 -9.6015,-1.418 v -32.285 c 0,-18.144 1.9375,-55.633 14.7656,-103.027 l 2.5,-9.395 9.6406,1.243 c 59.6365,7.82 164.0625,17.156 323.2615,17.156 159.168,0 263.645,-9.336 323.262,-17.156 l 9.609,-1.243 2.547,9.395 c 12.785,47.394 14.699,84.883 14.699,103.027 v 32.285 l -9.543,1.418 c -61.394,8.758 -170.253,19.207 -340.574,19.207 -170.351,0 -279.25,-10.449 -340.5662,-19.207" /><path
         id="path88"
         style="fill:#fddc04;fill-opacity:1;fill-rule:nonzero;stroke:none"
         d="M 643.098,236.984 C 593.086,153.164 518.047,88.1641 420.145,43.8203 c 0,0 -5.125,-2.3359 -9.071,-4.1328 -3.879,1.7578 -8.984,4.082 -8.984,4.1016 -97.996,44.375 -173.035,109.3749 -223.008,193.1949 -18.594,31.239 -31.195,61.012 -39.82,87.782 -3.594,-0.34 -7.078,-0.696 -10.496,-1.036 8.847,-27.996 21.949,-59.257 41.449,-92.019 51.086,-85.676 127.656,-152.0626 227.605,-197.336 0,0 7.817,-3.5547 13.254,-6.0234 5.489,2.5078 13.25,6.0429 13.262,6.0429 99.922,45.2539 176.504,111.6405 227.629,197.3045 19.484,32.754 32.578,64.024 41.414,92.031 -3.414,0.352 -6.902,0.696 -10.496,1.047 -8.613,-26.789 -21.207,-56.562 -39.785,-87.793 z M 320.496,753.945 v 10.274 C 217.273,759.316 129.672,747.656 94.4531,742.473 c 6.5819,-14.68 16.5159,-36.77 16.5159,-36.77 V 468.977 c 3.316,0.378 6.812,0.742 10.308,1.113 v 237.82 c 0,0 -6.914,15.403 -11.804,26.289 42.554,5.957 120.718,15.449 211.023,19.746 z m 369.301,-23.007 c -48.016,6.21 -114.375,13.261 -188.149,16.777 v -10.352 c 75.594,-3.633 142.571,-10.925 186.809,-16.66 -1.269,-2.851 -4.141,-9.238 -4.141,-9.238 V 471.746 c 3.493,-0.328 6.961,-0.672 10.301,-1.004 V 709.25 c 1.113,2.48 8.938,19.902 8.938,19.902 z M 193.281,245.488 c -17.093,28.711 -28.886,56.075 -37.129,80.84 -3.617,-0.312 -7.082,-0.644 -10.539,-0.957 8.481,-26.023 20.774,-54.891 38.801,-85.164 C 233.633,157.52 307.727,93.3398 404.648,49.4727 l 1.551,-0.7032 4.668,-2.2382 6.496,2.8046 0.078,0.0391 c 96.954,43.9922 171.075,108.203 220.286,190.84 18.019,30.273 30.308,59.14 38.789,85.156 -3.457,0.324 -6.914,0.645 -10.536,0.957 -8.242,-24.765 -20.035,-52.129 -37.125,-80.84 -48.164,-80.886 -120.71,-143.633 -215.671,-186.7185 0,0 -1.282,-0.5351 -2.11,-0.9179 -0.578,0.3125 -2.273,1.0156 -2.273,1.0156 0,0 0,0 0.105,0 C 313.938,101.855 241.426,164.602 193.281,245.488 Z m 308.367,518.731 v -10.274 c 90.29,-4.297 168.426,-13.789 210.981,-19.746 -4.887,-10.886 -11.801,-26.289 -11.801,-26.289 V 470.09 c 3.504,-0.363 7,-0.735 10.324,-1.106 v 236.719 c 0,0 9.903,22.09 16.485,36.758 -35.199,5.195 -122.789,16.855 -225.989,21.758 z M 137.832,471.758 v 239.707 c 0,0 -2.883,6.387 -4.16,9.238 44.258,5.735 111.211,13.027 186.824,16.66 v 10.352 C 246.723,744.199 180.367,737.148 132.363,730.938 l -13.789,-1.778 5.696,-12.676 c 0,0 2.144,-4.765 3.242,-7.234 V 470.742 c 3.343,0.332 6.824,0.676 10.32,1.016" /><path
         id="path90"
         style="fill:#fddc04;fill-opacity:1;fill-rule:nonzero;stroke:none"
         d="m 411.074,471.984 c -170.886,0 -279.375,-10.636 -339.0037,-19.179 0,-14.035 0,-22.649 0,-22.649 0,-18.652 2.0313,-54.609 14.3438,-100.195 61.9839,8.281 166.6129,17.355 324.6599,17.355 158.047,0 262.625,-9.074 324.668,-17.355 12.293,45.586 14.324,81.543 14.324,100.195 0,0 0,8.614 0,22.649 -59.617,8.543 -168.093,19.179 -338.992,19.179" /><path
         id="path92"
         style="fill:#10427a;fill-opacity:1;fill-rule:nonzero;stroke:none"
         d="m 103.445,354.602 c 7.715,2.918 11.75,4.714 12.285,7.996 0.649,3.691 1.309,8.867 1.575,15.488 1.367,31.367 0.808,48.164 0.656,50.039 -0.488,6.027 -1.606,6.477 -11.731,8.477 l -0.167,2.011 c 3.234,-0.008 6.066,-0.047 8.742,0.176 4.55,0.363 9.48,1.035 15.215,1.77 9.492,-19.036 20.175,-39.465 32.441,-61.094 8.574,22.254 16.23,44.156 23.242,65.613 4.707,0.11 8.738,0.164 12.09,0.442 3.477,0.281 7.871,0.906 12.676,1.57 l 0.156,-2.012 c -9.812,-3.496 -12.051,-4.219 -11.648,-9.16 0.457,-5.625 2.793,-16.082 6.043,-31.309 3.664,-16.953 5.937,-28.359 8.308,-34.355 1.203,-3.145 5.031,-3.906 12.461,-5.723 l 0.156,-2.011 c -8.355,0.128 -14.148,0.058 -17.359,-0.196 -5.754,-0.469 -12.688,-1.433 -20.648,-2.89 l -0.165,2.011 c 11.016,3.711 12.891,3.868 12.454,9.219 -0.793,9.777 -5.293,30.43 -12.582,62.031 -8.653,-22.793 -16.981,-47.988 -25.125,-75.457 l -1.614,-0.129 c -13.484,26.797 -26.035,50.293 -37.398,70.793 -0.656,-35.089 -0.332,-55.675 0.164,-61.828 0.547,-6.699 1.601,-6.465 12.844,-8.789 l 0.156,-2.012 c -8.637,0.11 -14.152,0.059 -16.692,-0.136 -4.953,-0.41 -10.41,-1.25 -16.367,-2.539 l -0.168,2.004" /><path
         id="path94"
         style="fill:#10427a;fill-opacity:1;fill-rule:nonzero;stroke:none"
         d="m 235.625,364.816 c 7.551,2.391 11.582,5.008 12.449,6.532 0.871,1.523 0.559,13.078 -0.523,34.804 -1.098,21.856 -1.946,33.516 -2.961,34.942 -1.016,1.562 -5.418,3.496 -13.027,5.136 l -0.149,2.813 c 4.602,-0.574 9.57,-0.469 14.809,-0.195 4.824,0.234 9.922,0.625 15.281,0.89 5.898,0.301 11.809,0.457 17.578,0.75 6.57,0.325 12.996,0.782 19.395,1.907 l 1.152,-20.383 -1.738,-0.078 c -2.266,7.675 -4.493,11.875 -5.879,12.734 -1.114,0.625 -6.914,1.008 -17.508,0.48 -5.363,-0.265 -11.008,-0.285 -17.18,-0.597 -0.215,-6.465 0.059,-17.207 0.84,-33.028 l 10.867,0.547 c 11.535,0.567 17.973,1.028 19.27,1.895 1.301,0.879 3.254,4.875 5.183,11.953 l 1.875,0.098 c -0.347,-6.328 -0.379,-11.172 -0.203,-14.668 0.164,-3.352 0.703,-8.7 1.477,-16.192 l -1.875,-0.097 c -2.258,7.421 -4.613,11.472 -6.137,12.343 -1.375,0.735 -7.82,0.547 -19.351,-0.039 l -10.864,-0.539 c 0.141,-2.82 0.278,-5.633 0.403,-8.172 0.632,-12.617 1.379,-22.129 2.097,-28.41 6.328,-0.222 11.711,-0.222 16.133,0 11.938,0.598 18.457,2.004 19.231,2.578 1.425,1.145 3.332,5.95 5.175,14.778 l 2.149,0.105 0.41,-21.629 c -20.828,-0.234 -34.922,-0.801 -42.293,-1.172 -8.586,-0.429 -17.285,-1.132 -25.981,-2.097 l -0.105,2.011" /><path
         id="path96"
         style="fill:#10427a;fill-opacity:1;fill-rule:nonzero;stroke:none"
         d="m 321.953,368.906 c 7.61,2.188 11.719,4.707 12.617,6.211 0.91,1.496 0.91,13.047 0.41,34.793 -0.507,21.887 -1.042,33.559 -2.011,35.012 -0.977,1.594 -5.324,3.633 -12.891,5.48 l -0.051,2.02 c 7.805,-0.637 14.258,-0.891 19.493,-0.762 5.246,0.117 11.543,0.664 19.308,1.653 l 0.051,-2.024 c -7.336,-2.176 -11.723,-4.434 -12.617,-6.055 -0.91,-1.504 -0.91,-13.183 -0.403,-35.078 0.235,-10.468 0.789,-22.812 1.524,-37.031 4.433,-0.039 8.332,-0.078 11.816,0 11.555,0.273 17.981,1.223 19.16,2.051 1.192,0.84 3.77,5.605 6.512,14.668 l 2.149,0.039 -1.114,-21.641 c -20.281,0.196 -34.258,0.137 -41.902,-0.039 -6.719,-0.144 -13.953,-0.586 -22,-1.308 l -0.051,2.011" /><path
         id="path98"
         style="fill:#10427a;fill-opacity:1;fill-rule:nonzero;stroke:none"
         d="m 399.68,370.371 c 7.664,1.992 11.836,4.395 12.769,5.859 0.949,1.485 1.262,13.028 1.328,34.786 0.078,21.886 -0.144,33.574 -1.082,35.05 -0.937,1.61 -5.222,3.778 -12.734,5.821 v 2.011 c 7.793,-0.832 14.238,-1.261 19.473,-1.281 5.234,-0.008 11.55,0.371 19.336,1.153 v -2.012 c -7.391,-1.992 -11.836,-4.129 -12.786,-5.742 -0.933,-1.465 -1.25,-13.145 -1.328,-35.039 -0.066,-21.758 0.157,-33.301 1.098,-34.786 0.926,-1.484 5.086,-3.906 12.73,-5.957 l -0.007,-2.011 c -7.786,0.84 -14.09,1.261 -19.329,1.269 -5.242,0.02 -11.687,-0.351 -19.48,-1.133 l 0.012,2.012" /><path
         id="path100"
         style="fill:#10427a;fill-opacity:1;fill-rule:nonzero;stroke:none"
         d="m 494.863,449.941 c -17.715,0.547 -28.32,-11.875 -29.07,-35.496 -0.891,-28.058 9.754,-44.113 27.879,-44.679 17.851,-0.567 28.457,11.855 29.199,35.351 0.879,28.047 -9.891,44.238 -28.008,44.824 z m 29.973,-71.894 c -7.531,-8.762 -18.84,-13.516 -31.856,-13.106 -11.945,0.391 -22.011,5 -29.269,13.293 -7.656,8.7 -11.594,20.118 -11.184,33.133 0.371,11.68 4.192,21.906 11.164,30.02 7.801,9.023 18.836,13.64 31.993,13.222 11.945,-0.371 21.875,-4.992 29.129,-13.281 7.785,-8.848 11.718,-20.39 11.308,-33.535 -0.359,-11.414 -4.18,-21.504 -11.285,-29.746" /><path
         id="path102"
         style="fill:#10427a;fill-opacity:1;fill-rule:nonzero;stroke:none"
         d="m 573.27,411.152 8.847,-0.539 c 16.211,-0.984 24.446,3.91 25.149,15.442 0.722,12.05 -7.43,17.39 -24.59,18.429 -1.738,0.106 -4.024,0.106 -6.992,0.02 -0.996,-12.055 -1.797,-23.164 -2.414,-33.352 z m 54.496,-48.894 c 0.261,-0.02 0.535,-0.031 0.797,-0.051 l -0.125,-2.148 c -3.204,0.468 -6.282,0.781 -9.356,0.976 -3.086,0.176 -6.047,0.227 -9.004,0.137 -8.32,15.976 -16.848,30.742 -25.168,44.433 -0.933,0.188 -2.539,0.286 -4.551,0.411 -1.882,0.105 -4.421,0.261 -7.379,0.312 -0.187,-3.086 -0.363,-5.898 -0.507,-8.457 -0.832,-13.672 -0.918,-21.863 -0.801,-24.297 0.152,-4.179 3.836,-5.605 12.793,-8.847 l -0.129,-2.012 c -7.727,1.277 -14.133,2.07 -19.492,2.394 -4.024,0.243 -10.481,0.223 -19.246,-0.05 l 0.125,2.011 c 7.761,1.543 12.058,3.711 13.086,5.125 1.027,1.418 1.992,12.934 3.3,34.653 1.321,21.843 1.758,33.523 0.911,35.054 -0.84,1.672 -5,4.075 -12.395,6.536 l 0.129,2.011 c 4.793,-0.832 8.66,-1.328 11.473,-1.504 11.257,-0.683 20.703,-0.312 28.339,-0.761 20.508,-1.25 30.411,-8.836 29.637,-21.7 -0.594,-9.921 -8.14,-16.738 -22.598,-20.039 15.391,-27.968 21.45,-43.672 30.161,-44.187" /><path
         id="path104"
         style="fill:#10427a;fill-opacity:1;fill-rule:nonzero;stroke:none"
         d="m 687.313,389.375 c -3.067,11.32 -6.571,23.887 -10.809,37.324 -5.723,-10.156 -11.848,-21.758 -18.484,-34.804 z m -60.282,-27.168 c 6.043,1.367 9.524,2.551 11.239,5.371 2.824,4.61 17.16,30.332 41.859,77.813 l 2.41,-0.215 c 14.191,-48.25 22.859,-75.957 25.742,-83.203 1.446,-3.633 5.059,-5.43 11.602,-7.735 l -0.176,-2.011 c -8.621,1.543 -15.012,2.5 -19.023,2.851 -5.489,0.469 -11.954,0.488 -19.637,0.469 l 0.176,2.012 c 8.718,1.132 13.164,2.636 13.308,4.375 0.176,2.011 -1.496,9.296 -5.664,21.914 l -33.32,2.871 c -5.996,-11.758 -9.152,-18.77 -9.363,-21.172 -0.176,-2.141 3.445,-3.801 10.972,-5.664 l -0.191,-2.266 c -5.957,1.309 -11.137,2.168 -15.149,2.512 -3.211,0.273 -8.066,0.281 -14.961,0.066 l 0.176,2.012" /><path
         id="path106"
         style="fill:#10427a;fill-opacity:1;fill-rule:nonzero;stroke:none"
         d="m 334.543,549.277 c -5.211,-0.8 -11.965,-1.386 -18.879,-0.625 -14.453,1.575 -12.422,5.254 -23.633,5.391 -3.183,0.039 -5.547,-0.488 -7.48,-1.094 v 95.539 c 0,0 1.828,0.985 4.758,1.375 0.757,0.098 1.609,0.164 2.605,0.157 3.77,-0.04 4.805,-0.477 7.07,-1.426 2.981,-1.258 7.079,-2.969 15.645,-3.906 7.219,-0.801 14.25,-0.325 19.914,0.46 z m -59.516,3.672 c -1.929,0.606 -4.289,1.133 -7.468,1.094 -11.219,-0.137 -9.192,-3.816 -23.645,-5.391 -6.906,-0.761 -13.664,-0.175 -18.875,0.625 v 95.871 c 5.664,-0.785 12.695,-1.261 19.91,-0.46 8.574,0.937 12.656,2.648 15.649,3.906 2.261,0.949 3.297,1.386 7.066,1.426 0.996,0.007 1.848,-0.059 2.602,-0.157 2.957,-0.39 4.761,-1.375 4.761,-1.375 z m 93.176,53.36 c 2.141,-0.118 3.86,1.601 3.86,3.933 v 7.641 c 0,2.215 -1.719,4.187 -3.86,4.297 l -7.273,0.398 v 22.149 c 0,2.218 -1.731,4.179 -3.86,4.296 l -9.761,0.54 c 1.308,-2.59 2.879,-5.305 4.5,-7.2 L 352.09,536.25 c -3.965,4.629 -8.027,15.027 -8.027,15.027 v 105.5 c 0,0 -13.946,-4.207 -28.399,-2.636 -14.453,1.582 -12.422,5.273 -23.633,5.402 -8.222,0.098 -12.234,-3.293 -12.234,-3.293 0,0 -4.027,3.391 -12.238,3.293 -11.219,-0.129 -9.192,-3.82 -23.645,-5.402 -14.434,-1.571 -28.387,2.636 -28.387,2.636 v -105.5 c 0,0 -4.074,-10.398 -8.039,-15.027 l 0.305,106.113 c 1.609,1.895 3.176,4.61 4.48,7.188 l -9.656,-0.528 c -2.129,-0.117 -3.855,-2.078 -3.855,-4.296 v -22.149 l -7.383,-0.398 c -2.133,-0.11 -3.867,-2.082 -3.867,-4.297 v -7.641 c 0,-2.332 1.734,-4.051 3.867,-3.933 l 7.383,0.39 v -43.094 l -7.383,-0.402 c -2.133,-0.117 -3.867,-2.07 -3.867,-4.297 v -7.636 c 0,-2.344 1.734,-4.051 3.867,-3.946 l 7.383,0.403 v -20.571 c 0,-2.332 1.726,-4.051 3.855,-3.933 l 63.59,3.41 c 2.949,-0.695 7.93,-1.164 13.59,-1.164 5.664,0 10.656,0.469 13.601,1.172 l 63.672,-3.418 c 2.129,-0.118 3.86,1.601 3.86,3.933 v 20.559 l 7.273,-0.391 c 2.141,-0.105 3.86,1.602 3.86,3.946 v 7.636 c 0,2.227 -1.719,4.18 -3.86,4.297 l -7.273,0.391 v 43.105 l 7.273,-0.39" /></g></g></svg>